<svg xmlns="http://www.w3.org/2000/svg" viewBox="0 0 32 32" width="32" height="32">
  <defs>
    <linearGradient id="bgGradient" x1="0%" y1="0%" x2="100%" y2="100%">
      <stop offset="0%" style="stop-color:#2563eb;stop-opacity:1" />
      <stop offset="100%" style="stop-color:#1d4ed8;stop-opacity:1" />
    </linearGradient>
    <linearGradient id="iconGradient" x1="0%" y1="0%" x2="100%" y2="100%">
      <stop offset="0%" style="stop-color:#60a5fa;stop-opacity:1" />
      <stop offset="100%" style="stop-color:#3b82f6;stop-opacity:1" />
    </linearGradient>
  </defs>
  
  <!-- Background circle -->
  <circle cx="16" cy="16" r="14" fill="url(#bgGradient)" stroke="#1e40af" stroke-width="1"/>
  
  <!-- MCP Protocol connection lines -->
  <line x1="6" y1="12" x2="10" y2="12" stroke="url(#iconGradient)" stroke-width="2" stroke-linecap="round"/>
  <line x1="22" y1="12" x2="26" y2="12" stroke="url(#iconGradient)" stroke-width="2" stroke-linecap="round"/>
  <line x1="6" y1="20" x2="10" y2="20" stroke="url(#iconGradient)" stroke-width="2" stroke-linecap="round"/>
  <line x1="22" y1="20" x2="26" y2="20" stroke="url(#iconGradient)" stroke-width="2" stroke-linecap="round"/>
  
  <!-- Central conductor/testing symbol -->
  <rect x="11" y="9" width="10" height="6" rx="2" fill="url(#iconGradient)" stroke="#dbeafe" stroke-width="0.5"/>
  <rect x="11" y="17" width="10" height="6" rx="2" fill="url(#iconGradient)" stroke="#dbeafe" stroke-width="0.5"/>
  
  <!-- Testing checkmarks -->
  <path d="M13 11.5 L15 13.5 L19 9.5" stroke="#dbeafe" stroke-width="1.5" fill="none" stroke-linecap="round" stroke-linejoin="round"/>
  <path d="M13 19.5 L15 21.5 L19 17.5" stroke="#dbeafe" stroke-width="1.5" fill="none" stroke-linecap="round" stroke-linejoin="round"/>
  
  <!-- Connection dots -->
  <circle cx="10" cy="12" r="1.5" fill="#60a5fa"/>
  <circle cx="22" cy="12" r="1.5" fill="#60a5fa"/>
  <circle cx="10" cy="20" r="1.5" fill="#60a5fa"/>
  <circle cx="22" cy="20" r="1.5" fill="#60a5fa"/>
</svg>
